<svg height="512pt" viewBox="0 0 512 512" width="512pt" xmlns="http://www.w3.org/2000/svg"><path d="m512 512h-512v-77.410156c0-27.550782 17.632812-52 43.761719-60.71875l148.238281-49.40625v-13.839844l-22.625-22.625h-73.375v-122.351562c0-85.136719 64.097656-159.601563 149.054688-165.28125 93.152343-6.238282 170.945312 67.777343 170.945312 159.632812v128h-73.375l-22.625 22.625v13.839844l148.238281 49.40625c26.128907 8.71875 43.761719 33.183594 43.761719 60.71875zm0 0" fill="#ffb6e0"/><path d="m176 128h32v32h-32zm0 0" fill="#fff"/><path d="m240 128h96v32h-96zm0 0" fill="#fff"/><path d="m512 388.464844-192-64v-13.839844l22.625-22.625h73.375v-60.769531c-10.335938-2.109375-21.039062-3.230469-32-3.230469-88.222656 0-160 71.777344-160 160 0 36.113281 12.289062 69.230469 32.574219 96h-256.574219v32h512l-.351562-32c.113281-.144531.238281-.273438.351562-.417969zm0 0" fill="#f09acf"/><path d="m384 256c-70.574219 0-128 57.421875-128 128 0 70.574219 57.425781 128 128 128s128-57.425781 128-128c0-70.578125-57.425781-128-128-128zm-96 128c0-52.945312 43.054688-96 96-96 20.671875 0 39.792969 6.640625 55.488281 17.792969l-133.679687 133.679687c-11.167969-15.679687-17.808594-34.800781-17.808594-55.472656zm96 96c-20.671875 0-39.792969-6.640625-55.488281-17.792969l133.679687-133.679687c11.167969 15.679687 17.808594 34.800781 17.808594 55.472656 0 52.945312-43.054688 96-96 96zm0 0" fill="#e76e54"/></svg>